<?xml version="1.0" encoding="utf-8"?>
<!-- Svg Vector Icons : http://www.onlinewebfonts.com/icon -->
<!DOCTYPE svg PUBLIC "-//W3C//DTD SVG 1.1//EN" "http://www.w3.org/Graphics/SVG/1.1/DTD/svg11.dtd">
<svg version="1.1" xmlns="http://www.w3.org/2000/svg" xmlns:xlink="http://www.w3.org/1999/xlink" x="0px" y="0px" viewBox="0 0 1000 1000" enable-background="new 0 0 1000 1000" xml:space="preserve">
<metadata> Svg Vector Icons : http://www.onlinewebfonts.com/icon </metadata>
<g><path d="M500,989.2C229.8,989.2,10,769.8,10,500C10,230.2,229.8,10.8,500,10.8c270.2,0,490,219.5,490,489.2C990,769.8,770.2,989.2,500,989.2z M500,36.3c-256.1,0-464.4,208-464.4,463.7S243.9,963.7,500,963.7c256.1,0,464.4-208,464.4-463.7S756.1,36.3,500,36.3z"/><path d="M675.3,668.1c-0.1,0-0.1,0.1-0.2,0.1c-0.1,0.1-0.1,0.1-0.1,0.2L675.3,668.1z M319,312.4c0.1-0.1,0.1-0.1,0.2-0.1c0-0.1,0.1-0.1,0.1-0.2L319,312.4z M675.1,312.3c0.1,0.1,0.1,0.1,0.2,0.1l-0.3-0.3C675.1,312.2,675.1,312.3,675.1,312.3z M319.3,668.4c-0.1-0.1-0.1-0.1-0.1-0.2c-0.1-0.1-0.1-0.1-0.2-0.1L319.3,668.4z M657.5,312.4L497.2,472.8L336.8,312.4c-4.9-4.9-12.7-4.9-17.6-0.1c-4.8,4.9-4.7,12.8,0.1,17.6l160.3,160.3L319.3,650.6c-4.8,4.8-4.9,12.7-0.1,17.6c4.9,4.8,12.8,4.7,17.6-0.1l160.3-160.3l160.3,160.3c4.9,4.9,12.7,4.9,17.6,0.1c4.8-4.9,4.7-12.8-0.1-17.6L514.7,490.3L675,329.9c4.9-4.8,4.9-12.7,0.1-17.6C670.2,307.6,662.3,307.6,657.5,312.4z"/></g>
</svg>