<?xml version="1.0" standalone="no"?>
<!DOCTYPE svg PUBLIC "-//W3C//DTD SVG 20010904//EN"
 "http://www.w3.org/TR/2001/REC-SVG-20010904/DTD/svg10.dtd">
<svg version="1.0" xmlns="http://www.w3.org/2000/svg"
 width="2202.000000pt" height="2202.000000pt" viewBox="0 0 2202.000000 2202.000000"
 preserveAspectRatio="xMidYMid meet">
<metadata>
Created by potrace 1.11, written by Peter Selinger 2001-2013
</metadata>
<g transform="translate(0.000000,2202.000000) scale(0.100000,-0.100000)"
fill="#000000" stroke="none">
<path d="M18926 16651 c-10 -15 -1478 -2956 -2893 -5791 -750 -1504 -1368
-2742 -1372 -2750 -5 -8 -69 -135 -142 -282 -73 -148 -136 -268 -139 -268 -3
0 -17 33 -32 73 -14 39 -37 101 -51 137 -13 36 -52 139 -86 230 -34 91 -66
175 -72 188 -5 13 -50 132 -100 265 -50 133 -94 251 -99 262 -11 25 -79 205
-118 310 -56 152 -253 670 -262 690 -5 11 -29 74 -53 140 -70 192 -197 528
-207 550 -9 20 -201 525 -227 598 -7 20 -42 113 -77 205 -35 92 -117 307 -181
477 -65 171 -135 357 -157 415 -35 93 -59 156 -153 405 -13 33 -86 227 -163
430 -77 204 -210 557 -296 785 -86 228 -161 424 -165 435 -10 23 -23 55 -27
70 -8 27 -228 606 -245 642 -10 24 -19 46 -19 49 0 6 -244 657 -272 724 -5 14
-47 121 -92 239 l-81 214 -95 27 c-657 191 -672 196 -1220 395 -162 59 -311
113 -331 120 -33 12 -42 11 -125 -24 -88 -37 -127 -55 -252 -112 -35 -16 -65
-29 -67 -29 -3 0 -30 -12 -62 -26 -32 -15 -71 -32 -88 -39 -16 -7 -109 -48
-205 -90 -96 -43 -251 -111 -345 -152 -93 -41 -183 -80 -200 -88 -16 -7 -73
-32 -125 -55 -52 -23 -113 -50 -135 -60 -22 -10 -78 -34 -125 -55 -86 -37
-123 -53 -195 -86 -22 -9 -130 -56 -240 -104 -110 -48 -203 -90 -208 -94 -10
-10 11 -19 163 -76 69 -26 139 -53 155 -60 31 -13 196 -77 425 -165 74 -28
144 -56 155 -60 11 -5 92 -37 180 -71 88 -34 233 -90 323 -125 89 -35 169 -64
176 -64 11 0 130 50 251 105 84 38 418 185 421 185 2 0 36 15 76 33 159 73
409 180 412 176 3 -4 121 -320 313 -839 52 -140 100 -271 108 -290 8 -19 71
-188 141 -375 69 -187 164 -443 211 -570 47 -126 98 -264 113 -305 15 -41 65
-174 110 -295 189 -507 284 -764 515 -1386 134 -361 248 -667 254 -680 5 -13
42 -112 81 -219 39 -107 74 -202 77 -210 4 -8 7 -17 8 -20 1 -3 5 -12 8 -20 8
-19 264 -708 356 -960 40 -107 76 -204 80 -215 20 -47 42 -106 76 -200 19 -55
39 -109 44 -120 5 -11 39 -103 77 -205 37 -102 72 -196 77 -210 6 -14 11 -27
12 -30 1 -3 4 -12 8 -20 5 -15 36 -97 332 -895 92 -247 223 -601 292 -785 69
-184 137 -368 151 -408 31 -86 -28 -52 477 -277 182 -80 343 -153 359 -161 16
-8 35 -14 43 -14 7 0 13 -4 13 -10 0 -5 5 -10 10 -10 6 0 113 -45 238 -101
125 -56 263 -117 307 -136 44 -20 121 -55 170 -78 139 -65 236 -107 240 -103
3 3 514 1028 1650 3313 553 1112 1205 2423 1945 3910 315 633 727 1462 917
1844 l345 693 -19 27 c-11 14 -40 55 -65 91 -25 36 -208 297 -406 580 -199
283 -366 522 -372 530 -6 8 -32 45 -58 82 -26 37 -74 105 -107 152 -33 47 -60
86 -62 86 -1 0 -4 -4 -7 -9z"/>
<path d="M4165 16549 c-99 -44 -247 -109 -330 -146 -82 -36 -178 -79 -212 -94
-34 -16 -89 -40 -122 -54 -33 -14 -84 -36 -113 -49 -29 -13 -141 -62 -248
-109 -213 -93 -528 -231 -575 -252 -105 -47 -471 -208 -505 -221 -23 -9 -38
-20 -33 -24 4 -4 46 -22 93 -39 47 -18 94 -37 105 -42 11 -5 304 -118 650
-253 347 -134 653 -253 681 -264 l51 -20 194 84 c107 47 218 96 247 109 29 14
55 25 57 25 3 0 38 15 79 34 70 33 167 75 266 118 25 10 53 23 62 28 10 6 24
10 31 10 11 0 13 -791 11 -4485 l-2 -4484 281 -198 c155 -108 284 -201 285
-205 2 -4 7 -8 12 -8 6 0 318 -216 505 -350 112 -80 309 -218 355 -248 l55
-37 2144 0 2144 0 56 70 c31 38 58 72 61 75 5 5 315 386 357 438 10 13 41 52
68 85 28 34 165 204 305 377 140 173 259 320 265 326 30 32 87 113 84 121 -2
4 -1235 8 -2739 8 l-2735 0 -2 4535 c-1 2494 -2 4553 -2 4575 -1 39 -3 41 -48
58 -44 17 -863 312 -1407 508 -120 44 -226 79 -235 78 -9 0 -97 -36 -196 -80z"/>
</g>
</svg>
